<svg xmlns="http://www.w3.org/2000/svg" xmlns:xlink="http://www.w3.org/1999/xlink" width="300" zoomAndPan="magnify" viewBox="0 0 224.87999 225" height="300" preserveAspectRatio="xMidYMid meet" version="1.0"><defs><g/><clipPath id="a466e3120a"><path d="M 172 73 L 192 73 L 192 92 L 172 92 Z M 172 73 " clip-rule="nonzero"/></clipPath><clipPath id="6c0ca5a4cd"><path d="M 177.257812 71.34375 L 194.261719 84.03125 L 186.378906 94.597656 L 169.371094 81.910156 Z M 177.257812 71.34375 " clip-rule="nonzero"/></clipPath><clipPath id="cfaea0f7a9"><path d="M 182.539062 75.285156 L 188.964844 80.078125 C 191.882812 82.257812 192.480469 86.386719 190.304688 89.304688 C 188.128906 92.222656 183.996094 92.824219 181.078125 90.644531 L 174.65625 85.851562 C 171.738281 83.675781 171.136719 79.542969 173.3125 76.625 C 175.492188 73.707031 179.621094 73.109375 182.539062 75.285156 Z M 182.539062 75.285156 " clip-rule="nonzero"/></clipPath><clipPath id="70f8db2ca2"><path d="M 176 73 L 189 73 L 189 91 L 176 91 Z M 176 73 " clip-rule="nonzero"/></clipPath><clipPath id="a5948816bf"><path d="M 170.910156 71.988281 L 191.800781 69.957031 L 193.835938 90.847656 L 172.945312 92.878906 Z M 170.910156 71.988281 " clip-rule="nonzero"/></clipPath><clipPath id="58801f02ac"><path d="M 170.910156 71.988281 L 191.800781 69.957031 L 193.835938 90.847656 L 172.945312 92.878906 Z M 170.910156 71.988281 " clip-rule="nonzero"/></clipPath></defs><g fill="#ffffff" fill-opacity="1"><g transform="translate(15.581873, 195.547516)"><g><path d="M 18.765625 -23.796875 C 18.398438 -28.148438 18.117188 -32.800781 17.921875 -37.75 C 17.734375 -42.707031 17.625 -47.789062 17.59375 -53 C 17.539062 -63.582031 17.773438 -74.421875 18.296875 -85.515625 C 18.828125 -96.609375 19.484375 -107.195312 20.265625 -117.28125 C 21.054688 -127.363281 21.847656 -136.394531 22.640625 -144.375 C 23.429688 -152.363281 24.15625 -158.625 24.8125 -163.15625 C 25.289062 -166.007812 27.039062 -167.445312 30.0625 -167.46875 C 32.082031 -167.476562 34.898438 -167.195312 38.515625 -166.625 C 42.128906 -166.0625 45.703125 -165.410156 49.234375 -164.671875 C 52.773438 -163.929688 55.300781 -163.234375 56.8125 -162.578125 C 58.15625 -162.078125 59.25 -161.410156 60.09375 -160.578125 C 60.9375 -159.742188 61.363281 -158.570312 61.375 -157.0625 C 61.382812 -155.71875 61.066406 -151.9375 60.421875 -145.71875 C 59.785156 -139.5 59.03125 -131.804688 58.15625 -122.640625 C 57.289062 -113.484375 56.421875 -103.90625 55.546875 -93.90625 C 54.671875 -83.90625 53.921875 -74.453125 53.296875 -65.546875 C 52.679688 -56.640625 52.390625 -49.242188 52.421875 -43.359375 C 52.429688 -42.191406 52.691406 -41.613281 53.203125 -41.625 C 53.535156 -41.625 53.945312 -42.207031 54.4375 -43.375 C 57.082031 -50.625 59.851562 -58.789062 62.75 -67.875 C 65.644531 -76.957031 68.570312 -86.296875 71.53125 -95.890625 C 74.5 -105.484375 77.34375 -114.65625 80.0625 -123.40625 C 82.789062 -132.15625 85.269531 -139.847656 87.5 -146.484375 C 89.738281 -153.128906 91.609375 -158.054688 93.109375 -161.265625 C 94.085938 -163.441406 95.671875 -164.539062 97.859375 -164.5625 C 99.703125 -164.570312 102.476562 -164.039062 106.1875 -162.96875 C 109.894531 -161.894531 113.429688 -160.78125 116.796875 -159.625 C 120.160156 -158.46875 122.347656 -157.5625 123.359375 -156.90625 C 124.546875 -156.226562 125.597656 -155.515625 126.515625 -154.765625 C 127.441406 -154.015625 127.910156 -152.882812 127.921875 -151.375 C 127.929688 -150.363281 127.894531 -149.1875 127.8125 -147.84375 C 127.738281 -146.5 127.703125 -145.828125 127.703125 -145.828125 C 127.054688 -140.785156 126.210938 -133.472656 125.171875 -123.890625 C 124.140625 -114.316406 123.234375 -103.734375 122.453125 -92.140625 C 121.671875 -80.546875 121.144531 -69.203125 120.875 -58.109375 C 120.882812 -56.585938 120.9375 -54.695312 121.03125 -52.4375 C 121.125 -50.175781 121.175781 -48.160156 121.1875 -46.390625 C 121.195312 -44.628906 121.203125 -43.75 121.203125 -43.75 C 121.210938 -42.582031 121.472656 -42 121.984375 -42 C 122.316406 -42 122.726562 -42.582031 123.21875 -43.75 C 125.039062 -49.476562 127.3125 -56.757812 130.03125 -65.59375 C 132.757812 -74.425781 135.773438 -83.929688 139.078125 -94.109375 C 142.378906 -104.296875 145.640625 -114.222656 148.859375 -123.890625 C 152.085938 -133.566406 155.023438 -142.066406 157.671875 -149.390625 C 160.316406 -156.710938 162.382812 -161.976562 163.875 -165.1875 C 164.875 -167.363281 166.460938 -168.457031 168.640625 -168.46875 C 169.816406 -168.476562 171.625 -167.988281 174.0625 -167 C 176.507812 -166.007812 179.207031 -164.804688 182.15625 -163.390625 C 185.101562 -161.984375 187.753906 -160.613281 190.109375 -159.28125 C 192.472656 -157.945312 194.160156 -156.863281 195.171875 -156.03125 C 196.515625 -155.019531 197.191406 -153.59375 197.203125 -151.75 C 197.210938 -150.90625 197.050781 -149.976562 196.71875 -148.96875 C 194.894531 -144.59375 192.578125 -138.492188 189.765625 -130.671875 C 186.953125 -122.847656 183.804688 -114.054688 180.328125 -104.296875 C 176.859375 -94.535156 173.304688 -84.5625 169.671875 -74.375 C 166.035156 -64.195312 162.429688 -54.4375 158.859375 -45.09375 C 155.296875 -35.75 152.023438 -27.457031 149.046875 -20.21875 C 146.066406 -12.976562 143.578125 -7.59375 141.578125 -4.0625 C 141.078125 -3.039062 140.15625 -2.234375 138.8125 -1.640625 C 137.476562 -1.046875 136.222656 -0.742188 135.046875 -0.734375 C 131.859375 -0.722656 127.738281 -1.664062 122.6875 -3.5625 C 117.632812 -5.46875 112.789062 -7.628906 108.15625 -10.046875 C 103.519531 -12.460938 100.03125 -14.5 97.6875 -16.15625 C 96.5 -16.988281 95.5625 -18.160156 94.875 -19.671875 C 94.195312 -21.179688 93.6875 -22.691406 93.34375 -24.203125 C 92.644531 -28.554688 92.195312 -33.925781 92 -40.3125 C 91.800781 -46.695312 91.6875 -52.660156 91.65625 -58.203125 C 91.632812 -61.722656 91.65625 -64.828125 91.71875 -67.515625 C 91.789062 -70.203125 91.828125 -72.050781 91.828125 -73.0625 C 91.816406 -73.394531 91.8125 -73.894531 91.8125 -74.5625 C 91.8125 -75.238281 91.644531 -75.578125 91.3125 -75.578125 C 90.96875 -75.578125 90.46875 -74.738281 89.8125 -73.0625 C 86.664062 -63.300781 83.6875 -53.832031 80.875 -44.65625 C 78.070312 -35.488281 75.472656 -27.285156 73.078125 -20.046875 C 70.691406 -12.804688 68.582031 -7.335938 66.75 -3.640625 C 66.25 -2.628906 65.328125 -1.828125 63.984375 -1.234375 C 62.648438 -0.640625 61.394531 -0.335938 60.21875 -0.328125 C 56.6875 -0.304688 52.394531 -1.125 47.34375 -2.78125 C 42.300781 -4.4375 37.503906 -6.46875 32.953125 -8.875 C 28.410156 -11.28125 25.039062 -13.570312 22.84375 -15.75 C 21.832031 -16.757812 20.941406 -17.972656 20.171875 -19.390625 C 19.410156 -20.816406 18.941406 -22.285156 18.765625 -23.796875 Z M 18.765625 -23.796875 "/></g></g></g><g fill="#000000" fill-opacity="1"><g transform="translate(167.223298, 160.103356)"><g><path d="M -2.46875 -4.015625 C -3.125 -4.203125 -3.816406 -4.410156 -4.546875 -4.640625 C -5.273438 -4.878906 -6.015625 -5.132812 -6.765625 -5.40625 C -8.316406 -5.96875 -9.882812 -6.585938 -11.46875 -7.265625 C -13.0625 -7.941406 -14.570312 -8.609375 -16 -9.265625 C -17.4375 -9.929688 -18.710938 -10.535156 -19.828125 -11.078125 C -20.953125 -11.617188 -21.832031 -12.0625 -22.46875 -12.40625 C -22.851562 -12.625 -22.96875 -12.957031 -22.8125 -13.40625 C -22.707031 -13.695312 -22.515625 -14.085938 -22.234375 -14.578125 C -21.953125 -15.078125 -21.664062 -15.566406 -21.375 -16.046875 C -21.082031 -16.523438 -20.84375 -16.859375 -20.65625 -17.046875 C -20.507812 -17.203125 -20.351562 -17.316406 -20.1875 -17.390625 C -20.019531 -17.472656 -19.828125 -17.476562 -19.609375 -17.40625 C -19.410156 -17.332031 -18.875 -17.082031 -18 -16.65625 C -17.132812 -16.226562 -16.054688 -15.707031 -14.765625 -15.09375 C -13.472656 -14.476562 -12.117188 -13.832031 -10.703125 -13.15625 C -9.296875 -12.488281 -7.957031 -11.867188 -6.6875 -11.296875 C -5.414062 -10.734375 -4.351562 -10.296875 -3.5 -9.984375 C -3.320312 -9.921875 -3.222656 -9.921875 -3.203125 -9.984375 C -3.179688 -10.035156 -3.25 -10.128906 -3.40625 -10.265625 C -4.3125 -11.046875 -5.347656 -11.890625 -6.515625 -12.796875 C -7.691406 -13.710938 -8.894531 -14.644531 -10.125 -15.59375 C -11.363281 -16.539062 -12.550781 -17.445312 -13.6875 -18.3125 C -14.820312 -19.1875 -15.8125 -19.960938 -16.65625 -20.640625 C -17.507812 -21.328125 -18.125 -21.863281 -18.5 -22.25 C -18.769531 -22.507812 -18.847656 -22.800781 -18.734375 -23.125 C -18.640625 -23.382812 -18.410156 -23.757812 -18.046875 -24.25 C -17.691406 -24.738281 -17.335938 -25.195312 -16.984375 -25.625 C -16.640625 -26.050781 -16.394531 -26.320312 -16.25 -26.4375 C -16.070312 -26.570312 -15.90625 -26.6875 -15.75 -26.78125 C -15.601562 -26.875 -15.414062 -26.878906 -15.1875 -26.796875 C -15.039062 -26.742188 -14.867188 -26.675781 -14.671875 -26.59375 C -14.484375 -26.507812 -14.390625 -26.46875 -14.390625 -26.46875 C -13.691406 -26.113281 -12.671875 -25.597656 -11.328125 -24.921875 C -9.992188 -24.253906 -8.5 -23.550781 -6.84375 -22.8125 C -5.195312 -22.070312 -3.578125 -21.390625 -1.984375 -20.765625 C -1.753906 -20.679688 -1.46875 -20.582031 -1.125 -20.46875 C -0.789062 -20.363281 -0.492188 -20.265625 -0.234375 -20.171875 C 0.015625 -20.078125 0.140625 -20.03125 0.140625 -20.03125 C 0.316406 -19.96875 0.421875 -19.972656 0.453125 -20.046875 C 0.460938 -20.097656 0.394531 -20.1875 0.25 -20.3125 C -0.488281 -20.894531 -1.425781 -21.625 -2.5625 -22.5 C -3.695312 -23.375 -4.921875 -24.328125 -6.234375 -25.359375 C -7.546875 -26.390625 -8.820312 -27.398438 -10.0625 -28.390625 C -11.300781 -29.378906 -12.382812 -30.257812 -13.3125 -31.03125 C -14.238281 -31.8125 -14.894531 -32.398438 -15.28125 -32.796875 C -15.539062 -33.054688 -15.613281 -33.34375 -15.5 -33.65625 C -15.4375 -33.832031 -15.265625 -34.066406 -14.984375 -34.359375 C -14.710938 -34.660156 -14.390625 -34.988281 -14.015625 -35.34375 C -13.648438 -35.707031 -13.304688 -36.023438 -12.984375 -36.296875 C -12.671875 -36.566406 -12.429688 -36.753906 -12.265625 -36.859375 C -12.035156 -37.015625 -11.785156 -37.039062 -11.515625 -36.9375 C -11.398438 -36.894531 -11.28125 -36.816406 -11.15625 -36.703125 C -10.601562 -36.203125 -9.832031 -35.535156 -8.84375 -34.703125 C -7.851562 -33.878906 -6.738281 -32.945312 -5.5 -31.90625 C -4.257812 -30.875 -2.992188 -29.816406 -1.703125 -28.734375 C -0.421875 -27.660156 0.800781 -26.613281 1.96875 -25.59375 C 3.132812 -24.570312 4.164062 -23.648438 5.0625 -22.828125 C 5.96875 -22.003906 6.617188 -21.351562 7.015625 -20.875 C 7.140625 -20.738281 7.207031 -20.554688 7.21875 -20.328125 C 7.238281 -20.097656 7.21875 -19.898438 7.15625 -19.734375 C 6.988281 -19.265625 6.628906 -18.710938 6.078125 -18.078125 C 5.523438 -17.453125 4.953125 -16.863281 4.359375 -16.3125 C 3.765625 -15.769531 3.28125 -15.375 2.90625 -15.125 C 2.71875 -14.988281 2.492188 -14.910156 2.234375 -14.890625 C 1.984375 -14.878906 1.734375 -14.882812 1.484375 -14.90625 C 0.816406 -15.050781 0.015625 -15.273438 -0.921875 -15.578125 C -1.867188 -15.890625 -2.75 -16.195312 -3.5625 -16.5 C -4.070312 -16.6875 -4.519531 -16.859375 -4.90625 -17.015625 C -5.300781 -17.171875 -5.570312 -17.273438 -5.71875 -17.328125 C -5.757812 -17.347656 -5.828125 -17.375 -5.921875 -17.40625 C -6.023438 -17.445312 -6.085938 -17.441406 -6.109375 -17.390625 C -6.117188 -17.347656 -6.023438 -17.226562 -5.828125 -17.03125 C -4.566406 -16.050781 -3.34375 -15.109375 -2.15625 -14.203125 C -0.96875 -13.296875 0.0820312 -12.472656 1 -11.734375 C 1.925781 -11.003906 2.609375 -10.398438 3.046875 -9.921875 C 3.171875 -9.804688 3.238281 -9.632812 3.25 -9.40625 C 3.269531 -9.175781 3.25 -8.972656 3.1875 -8.796875 C 3.007812 -8.285156 2.660156 -7.703125 2.140625 -7.046875 C 1.628906 -6.398438 1.070312 -5.8125 0.46875 -5.28125 C -0.125 -4.75 -0.632812 -4.378906 -1.0625 -4.171875 C -1.257812 -4.078125 -1.484375 -4.015625 -1.734375 -3.984375 C -1.984375 -3.960938 -2.226562 -3.972656 -2.46875 -4.015625 Z M -2.46875 -4.015625 "/></g></g></g><g fill="#000000" fill-opacity="1"><g transform="translate(176.988074, 133.182747)"><g><path d="M -6.90625 -10 C -6.5625 -9.820312 -6.132812 -9.582031 -5.625 -9.28125 C -5.125 -8.976562 -4.65625 -8.703125 -4.21875 -8.453125 C -3.789062 -8.203125 -3.492188 -8.050781 -3.328125 -8 C -3.046875 -7.894531 -2.847656 -7.992188 -2.734375 -8.296875 C -2.710938 -8.359375 -2.617188 -8.664062 -2.453125 -9.21875 C -2.296875 -9.78125 -2.109375 -10.453125 -1.890625 -11.234375 C -1.679688 -12.015625 -1.46875 -12.769531 -1.25 -13.5 C -1.039062 -14.226562 -0.863281 -14.789062 -0.71875 -15.1875 C -0.625 -15.4375 -0.472656 -15.617188 -0.265625 -15.734375 C -0.0664062 -15.859375 0.128906 -15.921875 0.328125 -15.921875 C 0.628906 -15.953125 1.0625 -15.953125 1.625 -15.921875 C 2.1875 -15.890625 2.710938 -15.84375 3.203125 -15.78125 C 3.691406 -15.71875 4 -15.664062 4.125 -15.625 C 4.488281 -15.488281 4.628906 -15.21875 4.546875 -14.8125 C 4.410156 -14.382812 4.234375 -13.757812 4.015625 -12.9375 C 3.804688 -12.113281 3.566406 -11.21875 3.296875 -10.25 C 3.023438 -9.28125 2.757812 -8.335938 2.5 -7.421875 C 2.238281 -6.515625 2.023438 -5.742188 1.859375 -5.109375 C 1.691406 -4.484375 1.582031 -4.109375 1.53125 -3.984375 C 1.382812 -3.585938 1.125 -3.3125 0.75 -3.15625 C 0.28125 -2.925781 -0.3125 -2.710938 -1.03125 -2.515625 C -1.75 -2.328125 -2.414062 -2.1875 -3.03125 -2.09375 C -3.363281 -2.039062 -3.6875 -2.070312 -4 -2.1875 C -4.613281 -2.414062 -5.425781 -2.796875 -6.4375 -3.328125 C -7.445312 -3.867188 -8.550781 -4.488281 -9.75 -5.1875 C -10.957031 -5.894531 -12.15625 -6.625 -13.34375 -7.375 C -14.53125 -8.125 -15.640625 -8.828125 -16.671875 -9.484375 C -17.703125 -10.140625 -18.519531 -10.679688 -19.125 -11.109375 C -19.269531 -11.210938 -19.382812 -11.28125 -19.46875 -11.3125 C -19.550781 -11.34375 -19.675781 -11.390625 -19.84375 -11.453125 C -19.976562 -11.503906 -20.195312 -11.582031 -20.5 -11.6875 C -20.800781 -11.800781 -21.109375 -11.90625 -21.421875 -12 C -21.734375 -12.09375 -21.941406 -12.160156 -22.046875 -12.203125 C -22.484375 -12.359375 -22.660156 -12.660156 -22.578125 -13.109375 C -22.472656 -13.785156 -22.257812 -14.734375 -21.9375 -15.953125 C -21.625 -17.179688 -21.25 -18.484375 -20.8125 -19.859375 C -20.382812 -21.242188 -19.957031 -22.523438 -19.53125 -23.703125 C -19.363281 -24.171875 -19.203125 -24.597656 -19.046875 -24.984375 C -18.890625 -25.367188 -18.742188 -25.707031 -18.609375 -26 C -18.359375 -26.519531 -18.019531 -26.742188 -17.59375 -26.671875 C -17.289062 -26.628906 -16.890625 -26.539062 -16.390625 -26.40625 C -15.898438 -26.28125 -15.4375 -26.148438 -15 -26.015625 C -14.5625 -25.890625 -14.265625 -25.800781 -14.109375 -25.75 C -13.941406 -25.6875 -13.828125 -25.5625 -13.765625 -25.375 C -13.703125 -25.195312 -13.691406 -25.023438 -13.734375 -24.859375 C -13.878906 -24.359375 -14.085938 -23.660156 -14.359375 -22.765625 C -14.628906 -21.878906 -14.929688 -20.898438 -15.265625 -19.828125 C -15.597656 -18.753906 -15.925781 -17.691406 -16.25 -16.640625 C -16.332031 -16.253906 -16.210938 -15.9375 -15.890625 -15.6875 C -15.554688 -15.457031 -15.125 -15.160156 -14.59375 -14.796875 C -14.0625 -14.441406 -13.566406 -14.125 -13.109375 -13.84375 C -12.648438 -13.5625 -12.367188 -13.398438 -12.265625 -13.359375 C -11.953125 -13.242188 -11.734375 -13.363281 -11.609375 -13.71875 C -11.585938 -13.757812 -11.515625 -13.992188 -11.390625 -14.421875 C -11.265625 -14.847656 -11.109375 -15.359375 -10.921875 -15.953125 C -10.742188 -16.554688 -10.5625 -17.148438 -10.375 -17.734375 C -10.195312 -18.328125 -10.050781 -18.785156 -9.9375 -19.109375 C -9.84375 -19.367188 -9.691406 -19.550781 -9.484375 -19.65625 C -9.273438 -19.769531 -9.085938 -19.804688 -8.921875 -19.765625 C -8.453125 -19.691406 -7.890625 -19.578125 -7.234375 -19.421875 C -6.578125 -19.265625 -6.023438 -19.117188 -5.578125 -18.984375 C -5.398438 -18.921875 -5.265625 -18.800781 -5.171875 -18.625 C -5.085938 -18.445312 -5.082031 -18.265625 -5.15625 -18.078125 L -7.25 -11.015625 C -7.363281 -10.546875 -7.25 -10.207031 -6.90625 -10 Z M -6.90625 -10 "/></g></g></g><g fill="#000000" fill-opacity="1"><g transform="translate(183.079371, 116.389591)"><g><path d="M -20.90625 -19.921875 C -20.488281 -21.066406 -19.847656 -22.078125 -18.984375 -22.953125 C -18.117188 -23.828125 -17.160156 -24.53125 -16.109375 -25.0625 C -15.066406 -25.59375 -14.054688 -25.941406 -13.078125 -26.109375 C -12.097656 -26.285156 -11.273438 -26.253906 -10.609375 -26.015625 C -9.273438 -25.535156 -8.289062 -24.726562 -7.65625 -23.59375 C -7.03125 -22.46875 -6.644531 -21.191406 -6.5 -19.765625 C -6.488281 -19.566406 -6.410156 -19.441406 -6.265625 -19.390625 C -6.117188 -19.335938 -5.972656 -19.351562 -5.828125 -19.4375 C -4.960938 -19.957031 -3.992188 -20.328125 -2.921875 -20.546875 C -1.859375 -20.773438 -0.9375 -20.742188 -0.15625 -20.453125 C 0.644531 -20.171875 1.34375 -19.597656 1.9375 -18.734375 C 2.53125 -17.867188 2.972656 -16.832031 3.265625 -15.625 C 3.566406 -14.425781 3.691406 -13.144531 3.640625 -11.78125 C 3.597656 -10.414062 3.34375 -9.082031 2.875 -7.78125 C 2.738281 -7.414062 2.554688 -6.96875 2.328125 -6.4375 C 2.109375 -5.914062 1.898438 -5.535156 1.703125 -5.296875 C 1.304688 -4.796875 0.785156 -4.351562 0.140625 -3.96875 C -0.503906 -3.582031 -1.160156 -3.253906 -1.828125 -2.984375 C -2.503906 -2.710938 -3.113281 -2.503906 -3.65625 -2.359375 C -3.957031 -2.273438 -4.28125 -2.296875 -4.625 -2.421875 C -5.050781 -2.578125 -5.6875 -2.890625 -6.53125 -3.359375 C -7.382812 -3.828125 -8.367188 -4.375 -9.484375 -5 C -10.609375 -5.632812 -11.75 -6.3125 -12.90625 -7.03125 C -14.070312 -7.75 -15.164062 -8.429688 -16.1875 -9.078125 C -17.21875 -9.722656 -18.0625 -10.28125 -18.71875 -10.75 C -18.8125 -10.8125 -18.898438 -10.859375 -18.984375 -10.890625 C -19.078125 -10.929688 -19.171875 -10.96875 -19.265625 -11 C -19.535156 -11.09375 -19.914062 -11.171875 -20.40625 -11.234375 C -20.894531 -11.304688 -21.226562 -11.375 -21.40625 -11.4375 C -21.75 -11.5625 -21.910156 -11.796875 -21.890625 -12.140625 C -21.960938 -12.785156 -21.96875 -13.570312 -21.90625 -14.5 C -21.851562 -15.4375 -21.738281 -16.394531 -21.5625 -17.375 C -21.382812 -18.351562 -21.164062 -19.203125 -20.90625 -19.921875 Z M -16.703125 -16.09375 C -16.335938 -15.851562 -15.90625 -15.554688 -15.40625 -15.203125 C -14.914062 -14.859375 -14.410156 -14.515625 -13.890625 -14.171875 C -13.378906 -13.835938 -12.929688 -13.550781 -12.546875 -13.3125 C -12.160156 -13.082031 -11.925781 -12.953125 -11.84375 -12.921875 C -11.550781 -12.816406 -11.335938 -12.953125 -11.203125 -13.328125 C -11.003906 -13.878906 -10.859375 -14.539062 -10.765625 -15.3125 C -10.679688 -16.09375 -10.691406 -16.875 -10.796875 -17.65625 C -10.898438 -18.445312 -11.117188 -19.144531 -11.453125 -19.75 C -11.796875 -20.363281 -12.296875 -20.789062 -12.953125 -21.03125 C -13.597656 -21.269531 -14.171875 -21.257812 -14.671875 -21 C -15.179688 -20.738281 -15.613281 -20.359375 -15.96875 -19.859375 C -16.320312 -19.359375 -16.59375 -18.835938 -16.78125 -18.296875 C -16.851562 -18.117188 -16.925781 -17.925781 -17 -17.71875 C -17.070312 -17.507812 -17.117188 -17.300781 -17.140625 -17.09375 C -17.179688 -16.882812 -17.15625 -16.691406 -17.0625 -16.515625 C -16.976562 -16.335938 -16.859375 -16.195312 -16.703125 -16.09375 Z M -7.40625 -10.234375 C -7.007812 -9.972656 -6.503906 -9.664062 -5.890625 -9.3125 C -5.273438 -8.96875 -4.710938 -8.65625 -4.203125 -8.375 C -3.691406 -8.101562 -3.378906 -7.945312 -3.265625 -7.90625 C -3.035156 -7.820312 -2.832031 -7.851562 -2.65625 -8 C -2.476562 -8.15625 -2.351562 -8.332031 -2.28125 -8.53125 C -2 -9.3125 -1.828125 -10.195312 -1.765625 -11.1875 C -1.710938 -12.1875 -1.847656 -13.101562 -2.171875 -13.9375 C -2.492188 -14.78125 -3.050781 -15.347656 -3.84375 -15.640625 C -4.476562 -15.867188 -5.003906 -15.832031 -5.421875 -15.53125 C -5.847656 -15.238281 -6.195312 -14.851562 -6.46875 -14.375 C -6.738281 -13.90625 -6.925781 -13.523438 -7.03125 -13.234375 C -7.070312 -13.128906 -7.160156 -12.882812 -7.296875 -12.5 C -7.429688 -12.125 -7.578125 -11.6875 -7.734375 -11.1875 C -7.796875 -11.007812 -7.804688 -10.835938 -7.765625 -10.671875 C -7.734375 -10.503906 -7.613281 -10.359375 -7.40625 -10.234375 Z M -7.40625 -10.234375 "/></g></g></g><g fill="#000000" fill-opacity="1"><g transform="translate(189.972154, 97.386809)"><g><path d="M -15.46875 -19.640625 C -15.75 -18.859375 -15.707031 -18 -15.34375 -17.0625 C -14.988281 -16.125 -14.394531 -15.191406 -13.5625 -14.265625 C -12.738281 -13.347656 -11.769531 -12.503906 -10.65625 -11.734375 C -9.550781 -10.972656 -8.367188 -10.367188 -7.109375 -9.921875 C -5.804688 -9.441406 -4.742188 -9.226562 -3.921875 -9.28125 C -3.097656 -9.332031 -2.46875 -9.535156 -2.03125 -9.890625 C -1.59375 -10.242188 -1.296875 -10.644531 -1.140625 -11.09375 C -0.847656 -11.90625 -0.894531 -12.765625 -1.28125 -13.671875 C -1.675781 -14.585938 -2.3125 -15.503906 -3.1875 -16.421875 C -4.0625 -17.347656 -5.09375 -18.179688 -6.28125 -18.921875 C -7.476562 -19.671875 -8.738281 -20.285156 -10.0625 -20.765625 C -11.570312 -21.316406 -12.78125 -21.457031 -13.6875 -21.1875 C -14.59375 -20.925781 -15.1875 -20.410156 -15.46875 -19.640625 Z M 3.765625 -10.140625 C 3.429688 -9.203125 2.878906 -8.300781 2.109375 -7.4375 C 1.347656 -6.582031 0.503906 -5.84375 -0.421875 -5.21875 C -1.359375 -4.59375 -2.222656 -4.175781 -3.015625 -3.96875 C -4.054688 -3.675781 -5.15625 -3.613281 -6.3125 -3.78125 C -7.46875 -3.957031 -8.535156 -4.222656 -9.515625 -4.578125 C -10.421875 -4.910156 -11.46875 -5.425781 -12.65625 -6.125 C -13.84375 -6.832031 -15.007812 -7.691406 -16.15625 -8.703125 C -17.300781 -9.722656 -18.300781 -10.847656 -19.15625 -12.078125 C -20.019531 -13.304688 -20.601562 -14.609375 -20.90625 -15.984375 C -21.21875 -17.359375 -21.109375 -18.769531 -20.578125 -20.21875 C -20.421875 -20.65625 -20.097656 -21.203125 -19.609375 -21.859375 C -19.128906 -22.515625 -18.539062 -23.179688 -17.84375 -23.859375 C -17.144531 -24.546875 -16.421875 -25.140625 -15.671875 -25.640625 C -14.929688 -26.148438 -14.207031 -26.488281 -13.5 -26.65625 C -12.445312 -26.875 -11.394531 -26.910156 -10.34375 -26.765625 C -9.289062 -26.617188 -8.257812 -26.363281 -7.25 -26 C -6.21875 -25.625 -5.09375 -25.070312 -3.875 -24.34375 C -2.664062 -23.613281 -1.492188 -22.742188 -0.359375 -21.734375 C 0.773438 -20.722656 1.75 -19.597656 2.5625 -18.359375 C 3.375 -17.128906 3.910156 -15.816406 4.171875 -14.421875 C 4.429688 -13.035156 4.296875 -11.609375 3.765625 -10.140625 Z M 3.765625 -10.140625 "/></g></g></g><g fill="#000000" fill-opacity="1"><g transform="translate(197.439336, 76.800459)"><g><path d="M 1.375 -5.546875 C 1.726562 -5.359375 1.832031 -5.066406 1.6875 -4.671875 C 1.613281 -4.453125 1.414062 -4.101562 1.09375 -3.625 C 0.78125 -3.144531 0.457031 -2.675781 0.125 -2.21875 C -0.195312 -1.769531 -0.421875 -1.484375 -0.546875 -1.359375 C -0.910156 -1.023438 -1.300781 -0.9375 -1.71875 -1.09375 C -2.800781 -1.5 -4.109375 -2.09375 -5.640625 -2.875 C -7.179688 -3.65625 -8.800781 -4.535156 -10.5 -5.515625 C -12.207031 -6.492188 -13.859375 -7.476562 -15.453125 -8.46875 C -17.046875 -9.46875 -18.460938 -10.398438 -19.703125 -11.265625 C -20.941406 -12.140625 -21.851562 -12.847656 -22.4375 -13.390625 C -22.695312 -13.671875 -22.757812 -14 -22.625 -14.375 C -22.5625 -14.570312 -22.375 -14.898438 -22.0625 -15.359375 C -21.757812 -15.816406 -21.4375 -16.285156 -21.09375 -16.765625 C -20.75 -17.253906 -20.457031 -17.640625 -20.21875 -17.921875 C -20 -18.203125 -19.695312 -18.269531 -19.3125 -18.125 C -19.257812 -18.101562 -19.210938 -18.078125 -19.171875 -18.046875 C -19.128906 -18.023438 -19.109375 -18.015625 -19.109375 -18.015625 C -18.378906 -17.421875 -17.300781 -16.628906 -15.875 -15.640625 C -14.457031 -14.648438 -12.804688 -13.570312 -10.921875 -12.40625 C -9.046875 -11.238281 -7.046875 -10.0625 -4.921875 -8.875 C -2.804688 -7.695312 -0.707031 -6.585938 1.375 -5.546875 Z M 1.375 -5.546875 "/></g></g></g><g fill="#000000" fill-opacity="1"><g transform="translate(200.378118, 68.6985)"><g><path d="M 2.421875 -6.53125 C 2.335938 -6.289062 2.238281 -6.0625 2.125 -5.84375 C 2.007812 -5.625 1.863281 -5.425781 1.6875 -5.25 C 1.363281 -4.976562 0.894531 -4.660156 0.28125 -4.296875 C -0.320312 -3.941406 -0.957031 -3.609375 -1.625 -3.296875 C -2.300781 -2.984375 -2.890625 -2.710938 -3.390625 -2.484375 C -3.722656 -2.316406 -4.078125 -2.300781 -4.453125 -2.4375 C -4.984375 -2.632812 -5.726562 -2.984375 -6.6875 -3.484375 C -7.644531 -3.984375 -8.691406 -4.566406 -9.828125 -5.234375 C -10.960938 -5.898438 -12.109375 -6.585938 -13.265625 -7.296875 C -14.429688 -8.003906 -15.492188 -8.671875 -16.453125 -9.296875 C -17.421875 -9.929688 -18.191406 -10.445312 -18.765625 -10.84375 C -18.835938 -10.894531 -18.914062 -10.9375 -19 -10.96875 C -19.082031 -11 -19.160156 -11.03125 -19.234375 -11.0625 C -19.628906 -11.207031 -20.082031 -11.34375 -20.59375 -11.46875 C -21.101562 -11.601562 -21.40625 -11.6875 -21.5 -11.71875 C -21.84375 -11.84375 -22.003906 -12.070312 -21.984375 -12.40625 C -22.066406 -13.59375 -22.035156 -14.804688 -21.890625 -16.046875 C -21.742188 -17.285156 -21.53125 -18.296875 -21.25 -19.078125 C -20.726562 -20.503906 -19.90625 -21.707031 -18.78125 -22.6875 C -17.664062 -23.675781 -16.398438 -24.441406 -14.984375 -24.984375 C -13.566406 -25.523438 -12.132812 -25.832031 -10.6875 -25.90625 C -9.25 -25.976562 -7.953125 -25.800781 -6.796875 -25.375 C -4.972656 -24.71875 -3.367188 -23.726562 -1.984375 -22.40625 C -0.609375 -21.082031 0.492188 -19.546875 1.328125 -17.796875 C 2.171875 -16.054688 2.695312 -14.210938 2.90625 -12.265625 C 3.125 -10.328125 2.960938 -8.414062 2.421875 -6.53125 Z M -2.859375 -8.4375 C -2.609375 -9.125 -2.523438 -10.03125 -2.609375 -11.15625 C -2.703125 -12.289062 -3.019531 -13.488281 -3.5625 -14.75 C -4.101562 -16.007812 -4.914062 -17.1875 -6 -18.28125 C -7.09375 -19.382812 -8.515625 -20.253906 -10.265625 -20.890625 C -11.191406 -21.222656 -12.0625 -21.28125 -12.875 -21.0625 C -13.6875 -20.851562 -14.40625 -20.441406 -15.03125 -19.828125 C -15.664062 -19.222656 -16.132812 -18.5 -16.4375 -17.65625 C -16.476562 -17.539062 -16.519531 -17.421875 -16.5625 -17.296875 C -16.613281 -17.171875 -16.644531 -17.039062 -16.65625 -16.90625 C -16.726562 -16.46875 -16.609375 -16.148438 -16.296875 -15.953125 C -14.660156 -14.859375 -12.726562 -13.609375 -10.5 -12.203125 C -8.28125 -10.796875 -6.023438 -9.472656 -3.734375 -8.234375 C -3.734375 -8.234375 -3.695312 -8.210938 -3.625 -8.171875 C -3.5625 -8.128906 -3.503906 -8.097656 -3.453125 -8.078125 C -3.179688 -7.972656 -2.984375 -8.09375 -2.859375 -8.4375 Z M -2.859375 -8.4375 "/></g></g></g><g clip-path="url(#a466e3120a)"><g clip-path="url(#6c0ca5a4cd)"><g clip-path="url(#cfaea0f7a9)"><path fill="#000000" d="M 177.257812 71.34375 L 194.261719 84.03125 L 186.378906 94.597656 L 169.371094 81.910156 Z M 177.257812 71.34375 " fill-opacity="1" fill-rule="nonzero"/></g></g></g><g clip-path="url(#70f8db2ca2)"><g clip-path="url(#a5948816bf)"><g clip-path="url(#58801f02ac)"><path fill="#ffffff" d="M 185.03125 90.160156 C 184.980469 90.167969 184.929688 90.160156 184.878906 90.148438 C 184.773438 90.117188 184.683594 90.046875 184.628906 89.949219 L 181.683594 84.625 L 178.964844 87.730469 C 178.855469 87.851562 178.683594 87.898438 178.527344 87.847656 C 178.371094 87.800781 178.257812 87.660156 178.242188 87.496094 L 176.917969 73.898438 C 176.902344 73.734375 176.984375 73.578125 177.128906 73.496094 C 177.273438 73.417969 177.453125 73.429688 177.582031 73.53125 L 188.367188 81.796875 C 188.5 81.898438 188.558594 82.066406 188.519531 82.222656 C 188.480469 82.382812 188.351562 82.503906 188.191406 82.535156 L 184.03125 83.304688 L 187.082031 88.542969 C 187.136719 88.636719 187.152344 88.75 187.121094 88.855469 C 187.09375 88.964844 187.027344 89.054688 186.929688 89.109375 L 185.199219 90.109375 C 185.144531 90.136719 185.089844 90.15625 185.03125 90.160156 Z M 185.03125 90.160156 " fill-opacity="1" fill-rule="nonzero"/></g></g></g></svg>